<svg width="516" height="489" viewBox="0 0 516 489" fill="none" xmlns="http://www.w3.org/2000/svg">
<path d="M63.759 265.227V371.492C63.759 400.837 87.548 424.625 116.892 424.625V212.094C87.547 212.094 63.759 235.883 63.759 265.227Z" fill="white"/>
<path fill-rule="evenodd" clip-rule="evenodd" d="M488.981 191.626C466.833 164.181 433.435 148.259 398.167 148.333H354.853V98.0904C362.651 52.3744 331.913 8.99344 286.197 1.19544C281.167 0.337444 276.069 -0.0605556 270.967 0.0074444C238.911 -0.159556 209.503 17.7684 194.966 46.3394L152.375 148.333V212.093V424.624V488.38L375.703 488.384C430.861 488.184 478.445 449.62 490.065 395.699L512.529 289.433C519.9 254.947 511.241 218.978 488.981 191.626ZM427.666 382.501L450.151 276.235C450.918 272.613 451.305 268.922 451.304 265.22C451.301 235.876 427.511 212.09 398.167 212.093H279.32L292.008 87.3794C292.196 86.2674 292.291 85.1415 292.292 84.0135C292.299 72.8395 283.246 63.7744 272.072 63.7674C263.64 63.3704 255.732 67.8614 251.754 75.3074L216.134 187.885V424.625H375.702C400.769 424.536 422.393 407.007 427.666 382.501Z" fill="white"/>
<path d="M116.892 148.334C52.364 148.405 0.07 200.698 0 265.227V371.493C0.07 436.022 52.364 488.315 116.892 488.385V424.625C87.548 424.625 63.759 400.837 63.759 371.492V265.227C63.759 235.883 87.547 212.094 116.892 212.094V148.334Z" fill="white"/>
<path d="M450.151 276.235L427.666 382.501C422.393 407.007 400.769 424.536 375.702 424.625H216.134V187.885L251.754 75.3074C255.732 67.8614 263.64 63.3704 272.072 63.7674C283.246 63.7744 292.299 72.8395 292.292 84.0135C292.291 85.1415 292.196 86.2674 292.008 87.3794L279.32 212.093H398.167C427.511 212.09 451.301 235.876 451.304 265.22C451.305 268.922 450.918 272.613 450.151 276.235Z" fill="white"/>
</svg>
